<?xml version="1.0" encoding="UTF-8"?>
<svg version="1.1" xmlns="http://www.w3.org/2000/svg" width="500" height="500">
<path d="M0 0 C165 0 330 0 500 0 C500 165 500 330 500 500 C335 500 170 500 0 500 C0 335 0 170 0 0 Z " fill="#FEFEFE" transform="translate(0,0)"/>
<path d="M0 0 C0.70358855 0.00047305 1.4071771 0.0009461 2.13208652 0.00143349 C19.29259386 0.03073622 36.40426906 0.85965608 53.53780031 1.75217891 C57.91745215 1.97873317 62.29754546 2.19644976 66.67758179 2.41542053 C73.99399643 2.78243367 81.31008315 3.15546123 88.62597656 3.53271484 C97.06721544 3.96795863 105.50883723 4.39502378 113.95072138 4.81755537 C123.00838167 5.27095544 132.06576697 5.7296654 141.12306547 6.19023061 C143.71350601 6.32163164 146.30399215 6.45210028 148.89448929 6.58238029 C152.95138192 6.78670726 157.00807457 6.99463931 161.06464005 7.20535851 C162.54886335 7.28192848 164.03314739 7.35733181 165.5174942 7.43146896 C167.54573213 7.53298561 169.57373141 7.63923717 171.60171509 7.74571228 C173.30091819 7.83282172 173.30091819 7.83282172 175.03444862 7.92169094 C178.1305809 8.16561658 181.12845916 8.61113262 184.18212891 9.16967773 C184.43781916 27.32547263 183.73954274 45.39495936 182.80155683 63.51963735 C182.60402911 67.36291963 182.41362553 71.20655572 182.22239685 75.05015564 C181.85997661 82.31434695 181.49167019 89.57822627 181.1209926 96.84200042 C180.6208623 106.64780033 180.12899509 116.45401388 179.63706577 126.26022804 C179.51725983 128.64845712 179.39742622 131.03668481 179.27757263 133.4249115 C179.21910098 134.59021044 179.21910098 134.59021044 179.15944809 135.77905077 C178.93201259 140.30790737 178.70311778 144.83668699 178.47272891 149.36539429 C178.32882447 152.19517973 178.18553881 155.02499637 178.04227722 157.85481441 C177.97343643 159.21084553 177.90427687 160.56686051 177.83478367 161.92285836 C177.49079176 168.63598923 177.16543591 175.34810458 176.92037964 182.06564331 C176.88053168 183.12430572 176.84068373 184.18296812 176.79962826 185.2737112 C176.72919282 187.20540675 176.6649029 189.13734208 176.60846043 191.06949711 C176.30661538 199.32460495 174.76798971 207.53692345 168.93603516 213.82592773 C157.24380094 222.78389782 144.30425032 223.38747861 130.18212891 222.16967773 C121.05036613 220.12553837 112.96318462 214.84638469 107.74072266 207.00561523 C103.40728189 198.45952647 105.19258925 188.75241215 106.08837891 179.54467773 C106.83359021 171.44581479 107.4713436 163.35042741 107.96337891 155.23217773 C108.05365356 153.74415649 108.05365356 153.74415649 108.14575195 152.22607422 C108.32674046 149.20740084 108.50497711 146.18857857 108.68212891 143.16967773 C109.44989173 130.08598392 110.29891102 117.02473372 111.49780273 103.97241211 C112.14970354 96.84314167 112.59186913 89.71834009 112.93603516 82.56811523 C113.14629685 79.66450135 113.58074477 77.00845322 114.18212891 74.16967773 C113.12421143 74.17475342 112.06629395 74.1798291 110.97631836 74.18505859 C99.10135391 74.22384487 87.24056302 74.02734691 75.36962891 73.73217773 C74.44005371 73.70978027 73.51047852 73.68738281 72.55273438 73.66430664 C69.74555579 73.59633271 66.93844407 73.52611568 64.13134766 73.45483398 C62.86861275 73.42348106 62.86861275 73.42348106 61.58036804 73.39149475 C54.72924919 73.21028988 47.88817659 72.89025346 41.04426575 72.53134155 C35.02292532 72.22496159 29.01520663 72.08344765 22.98681641 72.02514648 C21.09552688 71.99740526 19.20425077 71.9687358 17.31298828 71.93920898 C14.46071667 71.89529447 11.60916493 71.85746806 8.7565918 71.84155273 C-16.2438307 71.69921424 -16.2438307 71.69921424 -26.02880859 62.35717773 C-30.93802026 56.35464819 -34.54409338 48.97234259 -34.81787109 41.16967773 C-34.87845703 40.22737305 -34.93904297 39.28506836 -35.00146484 38.31420898 C-35.44936998 26.95370595 -33.19063258 16.82082235 -25.68896484 8.04467773 C-17.74764807 0.08678201 -10.73457712 -0.02229945 0 0 Z " fill="#19CB96" transform="translate(200.81787109375,119.830322265625)"/>
<path d="M0 0 C0.65921397 0.00047305 1.31842793 0.0009461 1.99761808 0.00143349 C18.78186251 0.03197251 35.52223352 0.87977844 52.27991891 1.75217891 C56.65552331 1.97845293 61.03154607 2.1963609 65.40751648 2.41542053 C72.72327532 2.78280835 80.03873132 3.15577435 87.35400391 3.53271484 C95.78609016 3.96717287 104.21851674 4.39442675 112.65117866 4.81755537 C121.70260932 5.27173766 130.75382412 5.73010168 139.80495429 6.19023061 C142.38990207 6.32142719 144.9748828 6.45195833 147.55986977 6.58238029 C151.6175296 6.78738065 155.67503182 6.9952724 159.73243141 7.20535851 C161.21379411 7.28165934 162.69520341 7.35706208 164.17666245 7.43146896 C171.56123288 7.80299708 178.88840341 8.24522957 186.22583008 9.16967773 C186.34007157 18.50590766 185.98059929 27.79646032 185.50732422 37.11743164 C185.42987771 38.68602272 185.35269101 40.25462664 185.27574158 41.82324219 C185.06760289 46.05101358 184.85582441 50.27859541 184.64332891 54.50614977 C184.42017212 58.95788488 184.20032851 63.40978369 183.98008728 67.86166382 C183.60960439 75.34122342 183.23696745 82.82067303 182.86279297 90.30004883 C182.3379468 100.79129682 181.81709032 111.28274008 181.29699528 121.77422452 C180.88997099 129.98160343 180.48177432 138.1889241 180.07348633 146.39624023 C180.00872569 147.69859139 180.00872569 147.69859139 179.94265676 149.02725267 C179.69249924 154.05694454 179.44174901 159.08660625 179.19014931 164.1162262 C179.11460676 165.62769601 179.03922689 167.13917397 178.96403885 168.65066147 C178.79272198 172.09324167 178.61852656 175.53561002 178.43782234 178.97771072 C178.2810208 181.987806 178.14793576 184.99821638 178.023283 188.00980759 C177.94955438 189.62636597 177.87571025 191.24291909 177.80174255 192.85946655 C177.77460774 193.60581694 177.74747294 194.35216733 177.71951586 195.1211344 C177.31354085 203.54318648 174.54665279 209.24311917 168.53833008 215.04467773 C160.56554791 221.22109303 152.58230229 222.82743475 142.66333008 222.66967773 C141.19863281 222.69288086 141.19863281 222.69288086 139.7043457 222.71655273 C133.00448213 222.68070062 128.08642784 221.38566664 122.22583008 218.16967773 C121.34411133 217.70045898 120.46239258 217.23124023 119.55395508 216.74780273 C113.27158732 212.73275567 109.59211717 208.26853901 107.22583008 201.16967773 C106.75427753 191.56316537 107.23252443 182.03537908 108.14770508 172.47045898 C109.1312653 161.68434266 109.85279753 150.89598383 110.48788452 140.08447266 C111.78407273 118.08827829 113.39146021 96.12706543 115.22583008 74.16967773 C114.4876001 74.17491455 113.74937012 74.18015137 112.98876953 74.18554688 C109.5052991 74.2068781 106.02184242 74.21951042 102.53833008 74.23217773 C101.37881836 74.24055664 100.21930664 74.24893555 99.0246582 74.25756836 C92.0356804 74.27640657 85.10095552 74.09167048 78.12426758 73.71655273 C69.00259767 73.23246995 59.88488239 73.00236694 50.75330925 72.82311821 C48.33154395 72.77499612 45.90985805 72.72395272 43.48817444 72.67189026 C42.27364389 72.64582876 42.27364389 72.64582876 41.03457737 72.61924076 C39.38178706 72.58373571 37.72899763 72.54818946 36.07620907 72.51260281 C31.8652073 72.42316408 27.65424907 72.34067315 23.44287109 72.27099609 C19.3009082 72.20197559 15.159694 72.11437462 11.01836205 72.0146122 C9.46096195 71.98041704 7.90340011 71.95283996 6.34575844 71.93242455 C-5.52210056 71.77222576 -15.1327537 70.48024112 -24.02026367 62.09545898 C-31.00165675 54.42992048 -33.15318455 46.61066866 -33.08666992 36.41967773 C-33.08103027 35.52659912 -33.07539062 34.63352051 -33.06958008 33.71337891 C-32.88043047 23.46278128 -30.74133197 15.0039973 -23.77416992 7.16967773 C-15.62421731 0.63873928 -10.26634612 -0.01557525 0 0 Z " fill="#19CB96" transform="translate(86.774169921875,223.830322265625)"/>
</svg>
